<?xml version="1.0" encoding="UTF-8" standalone="no"?>
<svg
   xmlns:dc="http://purl.org/dc/elements/1.1/"
   xmlns:cc="http://creativecommons.org/ns#"
   xmlns:rdf="http://www.w3.org/1999/02/22-rdf-syntax-ns#"
   xmlns:svg="http://www.w3.org/2000/svg"
   xmlns="http://www.w3.org/2000/svg"
   xmlns:sodipodi="http://sodipodi.sourceforge.net/DTD/sodipodi-0.dtd"
   xmlns:inkscape="http://www.inkscape.org/namespaces/inkscape"
   height="55"
   style="clip-rule:evenodd;fill-rule:evenodd;stroke-linejoin:round;stroke-miterlimit:1.41420996"
   version="1.1"
   viewBox="0 0 12.000543 55"
   width="12.000543"
   xml:space="preserve"
   id="svg6"
   sodipodi:docname="h.svg"
   inkscape:version="0.92.2 2405546, 2018-03-11"><metadata
     id="metadata12"><rdf:RDF><cc:Work
         rdf:about=""><dc:format>image/svg+xml</dc:format><dc:type
           rdf:resource="http://purl.org/dc/dcmitype/StillImage" /><dc:title></dc:title></cc:Work></rdf:RDF></metadata><defs
     id="defs10" /><sodipodi:namedview
     pagecolor="#ffffff"
     bordercolor="#666666"
     borderopacity="1"
     objecttolerance="10"
     gridtolerance="10"
     guidetolerance="10"
     inkscape:pageopacity="0"
     inkscape:pageshadow="2"
     inkscape:window-width="1920"
     inkscape:window-height="983"
     id="namedview8"
     showgrid="false"
     showborder="false"
     fit-margin-top="0"
     fit-margin-left="0"
     fit-margin-right="0"
     fit-margin-bottom="0"
     inkscape:zoom="4.72"
     inkscape:cx="2.1210812"
     inkscape:cy="5.5869958"
     inkscape:window-x="0"
     inkscape:window-y="27"
     inkscape:window-maximized="1"
     inkscape:current-layer="svg6" /><rect
     id="rect3739"
     width="145.33899"
     height="88.13559"
     x="-172.07176"
     y="8.6440649" /><g
     id="g3737"
     transform="translate(-255.65227,-63.283898)"><g
       id="g3730"
       style="fill:#ffffff"
       transform="translate(105.50847,58.898305)"><g
         id="g3724"
         style="fill:#ffffff"><g
           id="g3719"
           style="fill:#ffffff"><g
             transform="matrix(-0.707107,-0.707107,-0.707107,0.707107,114.5971,63.3814)"
             id="g4"
             style="fill:#ffffff"><path
               d="m 48.5,17.644 v -0.845 c 0.006,-0.183 0.032,-0.359 0.097,-0.532 0.163,-0.427 0.52,-0.764 0.957,-0.9 0.146,-0.045 0.294,-0.063 0.446,-0.068 4.65,0 9.303,-0.137 13.951,0.003 0.151,0.014 0.298,0.041 0.441,0.095 0.398,0.151 0.719,0.472 0.871,0.87 0.065,0.173 0.091,0.349 0.097,0.532 v 0.491 c 0.223,0.024 0.445,0.053 0.666,0.089 1.094,0.177 2.165,0.505 3.159,0.998 0.552,0.274 1.078,0.598 1.572,0.967 0.344,0.257 0.672,0.537 0.982,0.835 1.715,1.65 2.826,3.838 3.449,6.116 0.251,0.917 0.433,1.859 0.508,2.807 l 0.002,0.03 c 0.002,0.029 0.003,0.058 0.003,0.087 l 0.001,0.002 v 0.001 c 0,0.05 -0.002,0.099 -0.006,0.149 -0.002,0.023 -0.005,0.046 -0.008,0.07 -0.001,0.005 -0.001,0.01 -0.002,0.015 -0.003,0.017 -0.005,0.033 -0.008,0.05 v 0.001 h -10e-4 l -0.001,0.007 -0.001,0.009 -10e-4,0.001 v 10e-4 l -0.001,0.008 -0.002,0.007 v 0 0.002 l -0.002,0.011 -10e-4,0.004 h -0.001 v 0.001 c -0.003,0.015 -0.006,0.029 -0.01,0.043 l -10e-4,0.006 -0.001,0.001 v 0.002 l -0.002,0.006 -0.002,0.008 v 0.003 l -10e-4,0.002 -0.001,0.004 -0.002,0.008 -0.002,0.005 v 0.002 l -10e-4,0.002 -0.002,0.007 -0.002,0.008 -0.001,0.002 v 0 c -0.023,0.079 -0.053,0.156 -0.089,0.23 -0.013,0.026 -0.026,0.051 -0.04,0.076 v 0 l -0.002,0.003 -0.007,0.012 v 0 L 75.5,29.99 75.493,30.003 h -10e-4 v 0 c -0.007,0.013 -0.015,0.025 -0.023,0.038 -0.037,0.06 -0.08,0.117 -0.126,0.171 v 0.001 h -0.001 l -0.004,0.005 -0.005,0.006 -0.001,0.002 h -10e-4 l -0.003,0.003 -0.006,0.007 -0.002,0.002 v 0.001 l -10e-4,10e-4 -0.009,0.009 -0.001,0.002 -0.003,0.003 -0.007,0.008 h -0.001 l -0.001,0.002 -0.005,0.005 -0.003,0.004 -0.001,0.001 -0.003,0.002 -0.004,0.005 -0.003,0.002 -0.001,0.002 -0.004,0.004 -0.003,0.003 -0.002,0.002 -0.002,0.002 -0.005,0.005 -0.003,0.003 v 0 l -0.002,0.002 c -0.009,0.009 -0.019,0.018 -0.028,0.027 l -0.002,0.002 v 0 l -0.002,0.002 c -0.006,0.006 -0.013,0.012 -0.019,0.017 -0.015,0.014 -0.03,0.027 -0.045,0.039 -0.121,0.101 -0.258,0.182 -0.404,0.24 -0.196,0.078 -0.405,0.112 -0.612,0.104 -0.154,-0.006 -0.308,-0.035 -0.456,-0.089 -0.08,-0.029 -0.157,-0.064 -0.23,-0.106 L 73.457,30.541 73.456,30.54 73.448,30.536 73.442,30.532 73.438,30.53 73.436,30.529 C 73.431,30.526 73.427,30.524 73.422,30.521 L 73.419,30.519 73.413,30.515 73.41,30.513 73.407,30.511 73.4,30.507 c -0.008,-0.005 -0.015,-0.01 -0.023,-0.015 L 73.373,30.49 73.372,30.489 73.369,30.487 73.366,30.484 73.361,30.481 73.355,30.477 73.354,30.476 H 73.353 C 73.327,30.458 73.302,30.44 73.278,30.421 73.133,30.308 73.01,30.168 72.916,30.011 72.898,29.982 72.882,29.953 72.867,29.923 72.849,29.887 72.832,29.851 72.817,29.814 L 72.811,29.8 72.806,29.789 C 72.791,29.75 72.777,29.71 72.765,29.67 72.738,29.591 72.713,29.511 72.683,29.432 72.503,28.97 72.269,28.531 71.995,28.118 71.473,27.331 70.806,26.643 70.039,26.093 69.427,25.655 68.754,25.305 68.049,25.042 67.185,24.719 66.277,24.526 65.36,24.43 v 0.785 c -0.005,0.153 -0.022,0.3 -0.068,0.447 -0.136,0.436 -0.473,0.794 -0.9,0.956 -0.172,0.065 -0.349,0.092 -0.532,0.097 h -3.225 c 0.02,2.053 -0.008,4.107 -0.02,6.16 h 1.128 c 0.047,0.003 0.093,0.005 0.139,0.007 0.046,0.006 0.092,0.011 0.137,0.019 0.091,0.017 0.18,0.042 0.266,0.076 0.391,0.151 0.706,0.466 0.857,0.857 0.05,0.129 0.082,0.265 0.095,0.403 0.004,0.046 0.004,0.092 0.006,0.138 0,9.168 0.172,18.337 -0.002,27.504 -0.008,0.267 -0.03,0.533 -0.07,0.797 -0.094,0.616 -0.28,1.217 -0.551,1.778 -0.373,0.775 -0.907,1.471 -1.557,2.035 -0.461,0.399 -0.978,0.73 -1.533,0.981 -1.303,0.589 -2.794,0.716 -4.178,0.36 -0.449,-0.116 -0.885,-0.281 -1.298,-0.493 -0.586,-0.3 -1.123,-0.692 -1.589,-1.157 -0.537,-0.538 -0.977,-1.172 -1.29,-1.865 C 50.928,63.77 50.761,63.19 50.678,62.597 50.641,62.332 50.622,62.065 50.617,61.798 V 61.721 34.375 l 0.006,-0.138 c 0.006,-0.046 0.011,-0.092 0.019,-0.137 0.026,-0.136 0.07,-0.269 0.132,-0.393 0.187,-0.375 0.529,-0.66 0.932,-0.774 0.089,-0.026 0.18,-0.043 0.272,-0.051 0.046,-0.004 0.092,-0.004 0.139,-0.007 h 1.108 c -0.02,-2.053 0.008,-4.106 0.02,-6.16 H 50 C 49.848,26.711 49.7,26.693 49.554,26.647 49.117,26.511 48.76,26.175 48.597,25.747 48.532,25.575 48.506,25.398 48.5,25.215 v -0.844 c -0.547,0.003 -1.094,0.003 -1.641,0 -0.001,0.281 -0.002,0.563 -0.002,0.844 -0.004,0.163 -0.026,0.322 -0.078,0.477 -0.14,0.42 -0.467,0.762 -0.88,0.922 -0.152,0.059 -0.31,0.088 -0.473,0.1 -1.657,0.038 -3.315,0.001 -4.973,0.001 -0.163,-0.003 -0.321,-0.026 -0.476,-0.077 -0.42,-0.141 -0.763,-0.468 -0.922,-0.881 -0.059,-0.152 -0.089,-0.31 -0.1,-0.472 -0.065,-2.828 -0.002,-5.657 -0.002,-8.486 0.004,-0.162 0.026,-0.321 0.078,-0.476 0.141,-0.42 0.468,-0.762 0.88,-0.922 0.153,-0.059 0.31,-0.089 0.473,-0.1 1.68,-0.039 3.362,-0.039 5.042,0 0.163,0.011 0.321,0.041 0.473,0.1 0.39,0.151 0.706,0.466 0.857,0.857 0.059,0.152 0.088,0.31 0.1,0.472 0.007,0.305 0.012,0.609 0.016,0.914 0.543,-0.004 1.085,-0.004 1.628,0 z m 6.25,18.231 h -1.133 c 0,8.657 -0.272,17.318 0.002,25.97 0.004,0.085 0.01,0.169 0.019,0.254 0.057,0.471 0.21,0.927 0.457,1.334 0.221,0.363 0.512,0.683 0.853,0.938 0.235,0.176 0.493,0.32 0.766,0.428 0.902,0.356 1.943,0.293 2.795,-0.17 0.304,-0.165 0.581,-0.378 0.82,-0.628 0.257,-0.27 0.469,-0.583 0.622,-0.922 0.195,-0.431 0.289,-0.896 0.292,-1.367 V 35.875 h -1.136 c -1.452,0.034 -2.904,0 -4.357,0 z m 1.5,-9.16 v 6.16 h 1.36 v -6.16 z m 2.857,-3 h 3.253 v -5.416 c -3.62,0 -7.24,0 -10.86,0 v 0.864 c 0.021,1.229 0.021,2.459 0,3.689 v 0.863 h 3.253 c 1.451,-0.034 2.903,-0.034 4.354,0 z m -15.25,-4.552 v -0.864 h -1.904 v 5.416 h 1.904 v -0.863 c -0.021,-1.23 -0.021,-2.46 0,-3.689 z m 21.503,1.151 v 1.102 c 0.059,0.005 0.119,0.011 0.178,0.016 0.932,0.09 1.856,0.261 2.754,0.529 0.537,0.16 1.064,0.356 1.574,0.588 C 69.678,22.353 69.48,22.167 69.271,21.992 69.014,21.778 68.743,21.581 68.459,21.404 68.013,21.125 67.535,20.897 67.04,20.72 66.494,20.525 65.931,20.395 65.36,20.314 Z m -18.481,1.04 H 48.5 v -0.693 h -1.618 c -10e-4,0.231 -0.002,0.462 -0.003,0.693 z"
               style="fill:#ffffff"
               id="path2"
               inkscape:connector-curvature="0" /></g></g></g></g></g><g
     id="Screwdriver-2"
     data-name="Screwdriver"
     transform="rotate(180,6.0002676,27.5)"><path
       id="path3743"
       transform="translate(-106,-5)"
       d="M 117.39,38 A 33.41,33.41 0 0 1 114,33 h -4 c 0,0 -0.48,1.72 -3.26,5 A 2.52,2.52 0 0 0 106,39.79 V 56.5 c 0,1.58 1.28,3.5 2.86,3.5 h 6.28 c 1.58,0 2.86,-1.92 2.86,-3.5 V 39.65 A 2.4,2.4 0 0 0 117.39,38 Z M 111,55 h -2 V 43 h 2 z m 4,0 h -2 V 43 h 2 z"
       inkscape:connector-curvature="0" /><polygon
       id="polygon3745"
       points="4,0 3,5.75 5,9.5 5,26 7,26 7,9.5 9,5.75 8,0 " /></g></svg>