<svg id="Vrstva_1" data-name="Vrstva 1" xmlns="http://www.w3.org/2000/svg" viewBox="0 0 62.362 12.164">
  <defs>
    <style>
      .cls-1 {
        fill: gray;
      }

      .cls-2 {
        fill: #b19232;
      }
    </style>
  </defs>
  <title>Logo JDD bez pozadí</title>
  <g>
    <path class="cls-1" d="M399.175,293.363a2.159,2.159,0,0,1-1.123,1.973,6.5,6.5,0,0,1-3.282.669H389.5V294.96h5.138q3.489,0,3.489-1.831v-2.072h1.045v2.306Z" transform="translate(-389.503 -291.057)"/>
    <path class="cls-1" d="M412.837,296.005H411.62l-0.89-1.235h-9.007l0.691-1.045h7.573l-1.149-1.623H402.82l-2.634,3.9h-1.278l3.2-4.715a0.551,0.551,0,0,1,.2-0.16,0.523,0.523,0,0,1,.233-0.073h6.572a0.5,0.5,0,0,1,.432.216Z" transform="translate(-389.503 -291.057)"/>
    <polygon class="cls-1" points="34.137 4.948 31.054 4.948 24.983 2.979 24.983 4.948 23.938 4.948 23.938 0 24.983 0 24.983 1.753 30.64 0 33.835 0 26.063 2.323 34.137 4.948"/>
    <path class="cls-1" d="M425.968,295.919a3.016,3.016,0,0,1-.989-0.293,1.359,1.359,0,0,1-.574-0.549,1.759,1.759,0,0,1-.186-0.851v-3.169h1.045v3.074a1.022,1.022,0,0,0,.06.371,0.51,0.51,0,0,0,.281.259,2.138,2.138,0,0,0,.648.151,10.987,10.987,0,0,0,1.153.047h6.615a10.86,10.86,0,0,0,1.149-.047,2.13,2.13,0,0,0,.643-0.151,0.533,0.533,0,0,0,.285-0.259,0.969,0.969,0,0,0,.065-0.371v-3.074h1.045v3.169a1.763,1.763,0,0,1-.186.851,1.359,1.359,0,0,1-.574.549,3.016,3.016,0,0,1-.989.293,10.267,10.267,0,0,1-1.438.086h-6.615A10.26,10.26,0,0,1,425.968,295.919Z" transform="translate(-389.503 -291.057)"/>
    <path class="cls-1" d="M451.257,294.623a1.348,1.348,0,0,1-.1.557,1.176,1.176,0,0,1-.272.384,1.226,1.226,0,0,1-.389.242,2.463,2.463,0,0,1-.449.129,3.454,3.454,0,0,1-.454.056q-0.225.013-.406,0.013H438.261v-3.342h1.045v2.3h10.129a0.687,0.687,0,0,0,.415-0.125,0.383,0.383,0,0,0,.173-0.324,0.4,0.4,0,0,0-.155-0.315,0.643,0.643,0,0,0-.432-0.134h-9.594v-1.045h9.534a0.783,0.783,0,0,0,.466-0.13,0.39,0.39,0,0,0,.181-0.328,0.4,0.4,0,0,0-.155-0.315,0.641,0.641,0,0,0-.432-0.134H438.261v-1.045h10.924a7.077,7.077,0,0,1,.8.043,1.985,1.985,0,0,1,.661.185,1.1,1.1,0,0,1,.449.4,1.291,1.291,0,0,1,.164.693,1.824,1.824,0,0,1-.056.495,0.768,0.768,0,0,1-.169.314,0.744,0.744,0,0,1-.276.185,1.808,1.808,0,0,1-.38.1,1.724,1.724,0,0,1,.393.1,0.7,0.7,0,0,1,.276.2,0.832,0.832,0,0,1,.16.332A2.089,2.089,0,0,1,451.257,294.623Z" transform="translate(-389.503 -291.057)"/>
    <path class="cls-2" d="M413.334,303.18v-3.342h1.045v2.3h8.765a10.856,10.856,0,0,0,1.149-.047,2.127,2.127,0,0,0,.643-0.151,0.532,0.532,0,0,0,.285-0.259,0.962,0.962,0,0,0,.065-0.371v-1.2a0.964,0.964,0,0,0-.065-0.371,0.532,0.532,0,0,0-.285-0.259,2.127,2.127,0,0,0-.643-0.151,10.856,10.856,0,0,0-1.149-.047h-9.81v-1.045h9.81a10.267,10.267,0,0,1,1.438.086,3.024,3.024,0,0,1,.989.293,1.362,1.362,0,0,1,.575.549,1.764,1.764,0,0,1,.186.851v1.39a1.764,1.764,0,0,1-.186.851,1.359,1.359,0,0,1-.575.549,3.016,3.016,0,0,1-.989.293,10.267,10.267,0,0,1-1.438.086h-9.81Z" transform="translate(-389.503 -291.057)"/>
    <path class="cls-2" d="M428.135,300.419a1.357,1.357,0,0,1-.445-0.132,0.611,0.611,0,0,1-.258-0.247,0.792,0.792,0,0,1-.084-0.383v-1.426h0.47v1.383a0.46,0.46,0,0,0,.027.167,0.23,0.23,0,0,0,.126.117,0.962,0.962,0,0,0,.291.068,4.943,4.943,0,0,0,.519.021h2.976a4.886,4.886,0,0,0,.517-0.021,0.958,0.958,0,0,0,.289-0.068,0.24,0.24,0,0,0,.128-0.117,0.436,0.436,0,0,0,.029-0.167v-1.383h0.47v1.426a0.793,0.793,0,0,1-.084.383,0.611,0.611,0,0,1-.258.247,1.357,1.357,0,0,1-.445.132,4.62,4.62,0,0,1-.647.039h-2.976A4.616,4.616,0,0,1,428.135,300.419Z" transform="translate(-389.503 -291.057)"/>
    <path class="cls-2" d="M433.643,298.231H438.3a1.942,1.942,0,0,1,.47.052,1.1,1.1,0,0,1,.36.155,0.7,0.7,0,0,1,.229.256,0.839,0.839,0,0,1,0,.713,0.675,0.675,0,0,1-.229.251,1.1,1.1,0,0,1-.36.148,2.087,2.087,0,0,1-.47.049l-0.746,0-0.517-.006q-0.214,0-.361-0.01l-0.28-.014,0.183,0.033,0.243,0.045,0.363,0.07,0.546,0.107q0.328,0.064.787,0.157l1.088,0.221h-2.09l-2.976-.719V299.4H438.3a1.281,1.281,0,0,0,.521-0.074,0.266,0.266,0,0,0,.148-0.26,0.366,0.366,0,0,0-.033-0.161,0.262,0.262,0,0,0-.113-0.113,0.641,0.641,0,0,0-.208-0.066,1.957,1.957,0,0,0-.315-0.021h-4.659v-0.47Z" transform="translate(-389.503 -291.057)"/>
    <rect class="cls-2" x="44.139" y="7.905" width="0.47" height="1.496"/>
    <polygon class="cls-2" points="53.942 7.645 52.439 7.645 52.439 9.401 51.968 9.401 51.968 7.645 50.403 7.645 50.403 7.174 53.942 7.174 53.942 7.645"/>
    <polygon class="cls-2" points="43.473 12.123 37.845 12.123 37.845 9.979 43.473 9.979 43.473 10.431 38.298 10.431 38.298 11.67 43.473 11.67 43.473 12.123"/>
    <rect class="cls-2" x="38.541" y="10.824" width="3.386" height="0.453"/>
    <path class="cls-2" d="M434.2,302.311a1.755,1.755,0,0,1-.32-0.028,0.782,0.782,0,0,1-.266-0.1,0.492,0.492,0,0,1-.18-0.189,0.626,0.626,0,0,1-.065-0.3,0.66,0.66,0,0,1,.065-0.309,0.562,0.562,0,0,1,.178-0.2,0.733,0.733,0,0,1,.264-0.112,1.493,1.493,0,0,1,.324-0.034h4.311v0.453h-4.27a0.618,0.618,0,0,0-.286.05,0.146,0.146,0,0,0-.092.125,0.151,0.151,0,0,0,.09.163,0.923,0.923,0,0,0,.284.032h3.648a2.122,2.122,0,0,1,.395.034,0.89,0.89,0,0,1,.3.112,0.531,0.531,0,0,1,.195.206,0.657,0.657,0,0,1,.067.311,0.645,0.645,0,0,1-.067.309,0.545,0.545,0,0,1-.191.2,0.852,0.852,0,0,1-.3.112,2.1,2.1,0,0,1-.393.034h-4.528v-0.453H437.9a0.817,0.817,0,0,0,.355-0.054,0.17,0.17,0,0,0,0-.311,0.873,0.873,0,0,0-.355-0.051h-3.7Z" transform="translate(-389.503 -291.057)"/>
    <rect class="cls-2" x="49.819" y="9.979" width="0.453" height="2.144"/>
    <path class="cls-2" d="M445.845,303.18H441.6a4.442,4.442,0,0,1-.623-0.037,1.306,1.306,0,0,1-.428-0.127,0.588,0.588,0,0,1-.249-0.238,0.764,0.764,0,0,1-.08-0.369v-0.6a0.764,0.764,0,0,1,.08-0.369,0.589,0.589,0,0,1,.249-0.238,1.31,1.31,0,0,1,.428-0.127,4.442,4.442,0,0,1,.623-0.037h4.248v0.453H441.6a4.756,4.756,0,0,0-.5.021,0.924,0.924,0,0,0-.28.065,0.222,0.222,0,0,0-.122.112,0.447,0.447,0,0,0-.026.161v0.52a0.443,0.443,0,0,0,.026.161,0.221,0.221,0,0,0,.122.112,0.927,0.927,0,0,0,.281.065,4.759,4.759,0,0,0,.5.021h3.794v-0.37h-3.618V301.9h4.071v1.276Z" transform="translate(-389.503 -291.057)"/>
    <path class="cls-2" d="M446.238,301.541a0.49,0.49,0,0,1,.062-0.254,0.52,0.52,0,0,1,.159-0.17,0.652,0.652,0,0,1,.217-0.093,1.029,1.029,0,0,1,.236-0.028,0.92,0.92,0,0,1,.167.015,0.653,0.653,0,0,1,.14.041l3.892,1.714a0.329,0.329,0,0,0,.135.03,0.2,0.2,0,0,0,.116-0.036,0.145,0.145,0,0,0,.052-0.129v-1.594h0.453v1.639a0.492,0.492,0,0,1-.062.256,0.526,0.526,0,0,1-.159.168,0.654,0.654,0,0,1-.217.093,1.029,1.029,0,0,1-.236.028,0.917,0.917,0,0,1-.167-0.015,0.648,0.648,0,0,1-.14-0.041l-3.892-1.714a0.329,0.329,0,0,0-.135-0.03,0.2,0.2,0,0,0-.116.036,0.145,0.145,0,0,0-.052.129v1.594h-0.453v-1.639Z" transform="translate(-389.503 -291.057)"/>
  </g>
</svg>