<?xml version="1.0" encoding="UTF-8" standalone="no"?>
<!-- Created with Inkscape (http://www.inkscape.org/) -->

<svg
   xmlns:dc="http://purl.org/dc/elements/1.1/"
   xmlns:cc="http://creativecommons.org/ns#"
   xmlns:rdf="http://www.w3.org/1999/02/22-rdf-syntax-ns#"
   xmlns:svg="http://www.w3.org/2000/svg"
   xmlns="http://www.w3.org/2000/svg"
   xmlns:sodipodi="http://sodipodi.sourceforge.net/DTD/sodipodi-0.dtd"
   xmlns:inkscape="http://www.inkscape.org/namespaces/inkscape"
   width="48.741207mm"
   height="14.543625mm"
   viewBox="0 0 48.741207 14.543625"
   version="1.1"
   id="svg8"
   inkscape:version="0.92.2 2405546, 2018-03-11"
   sodipodi:docname="logo.svg">
  <defs
     id="defs2" />
  <sodipodi:namedview
     id="base"
     pagecolor="#ffffff"
     bordercolor="#666666"
     borderopacity="1.0"
     inkscape:pageopacity="0.0"
     inkscape:pageshadow="2"
     inkscape:zoom="2.8284271"
     inkscape:cx="171.67582"
     inkscape:cy="23.454617"
     inkscape:document-units="mm"
     inkscape:current-layer="layer1"
     showgrid="false"
     inkscape:window-width="1920"
     inkscape:window-height="983"
     inkscape:window-x="0"
     inkscape:window-y="27"
     inkscape:window-maximized="1"
     showborder="false"
     inkscape:object-paths="true"
     inkscape:snap-intersection-paths="true"
     inkscape:snap-bbox="false"
     inkscape:bbox-paths="true"
     inkscape:bbox-nodes="true"
     inkscape:snap-bbox-edge-midpoints="true"
     inkscape:snap-bbox-midpoints="true"
     inkscape:snap-smooth-nodes="true"
     inkscape:snap-nodes="false"
     inkscape:snap-midpoints="false"
     inkscape:snap-object-midpoints="false"
     inkscape:snap-global="true"
     inkscape:snap-others="true"
     inkscape:object-nodes="true"
     inkscape:snap-center="true"
     objecttolerance="10"
     inkscape:snap-path-clip="false"
     inkscape:snap-path-mask="false"
     guidetolerance="20"
     gridtolerance="10000"
     inkscape:snap-perpendicular="false"
     inkscape:snap-tangential="false"
     fit-margin-top="0"
     fit-margin-left="0"
     fit-margin-right="0"
     fit-margin-bottom="0" />
  <metadata
     id="metadata5">
    <rdf:RDF>
      <cc:Work
         rdf:about="">
        <dc:format>image/svg+xml</dc:format>
        <dc:type
           rdf:resource="http://purl.org/dc/dcmitype/StillImage" />
        <dc:title></dc:title>
      </cc:Work>
    </rdf:RDF>
  </metadata>
  <g
     inkscape:label="Layer 1"
     inkscape:groupmode="layer"
     id="layer1"
     transform="translate(181.47239,270.38181)">
    <path
       style="color:#000000;font-style:normal;font-variant:normal;font-weight:normal;font-stretch:normal;font-size:medium;line-height:normal;font-family:sans-serif;font-variant-ligatures:normal;font-variant-position:normal;font-variant-caps:normal;font-variant-numeric:normal;font-variant-alternates:normal;font-feature-settings:normal;text-indent:0;text-align:start;text-decoration:none;text-decoration-line:none;text-decoration-style:solid;text-decoration-color:#000000;letter-spacing:normal;word-spacing:normal;text-transform:none;writing-mode:lr-tb;direction:ltr;text-orientation:mixed;dominant-baseline:auto;baseline-shift:baseline;text-anchor:start;white-space:normal;shape-padding:0;clip-rule:nonzero;display:inline;overflow:visible;visibility:visible;opacity:0.87900002;isolation:auto;mix-blend-mode:normal;color-interpolation:sRGB;color-interpolation-filters:linearRGB;solid-color:#000000;solid-opacity:1;vector-effect:none;fill:#000000;fill-opacity:1;fill-rule:nonzero;stroke:none;stroke-width:3.99999976;stroke-linecap:butt;stroke-linejoin:miter;stroke-miterlimit:4;stroke-dasharray:none;stroke-dashoffset:0;stroke-opacity:1;color-rendering:auto;image-rendering:auto;shape-rendering:auto;text-rendering:auto;enable-background:accumulate"
       d="m 98.408203,-555.32422 v 2 279.04297 l 1.658207,0.98047 h 225.08203 v -282.02344 z m 3.999997,4 h 218.74024 v 274.02344 H 102.4082 Z"
       transform="scale(0.26458333)"
       id="rect4546"
       inkscape:connector-curvature="0" />
    <path
       style="fill:none;stroke:#000000;stroke-width:0.26458332px;stroke-linecap:butt;stroke-linejoin:miter;stroke-opacity:1"
       d="m 26.56659,-146.40013 v 0 0 0 c 0,0 0,0 0,0 v 0 c 0,0 0,0 0,0 0,0 0,0 0,0 0,0 0,0 0,0 0,0 0,0 0,0 0,0 0,0 0,0 v 0"
       id="path4559"
       inkscape:connector-curvature="0" />
    <path
       style="fill:none;stroke:none;stroke-width:0.26458332px;stroke-linecap:butt;stroke-linejoin:miter;stroke-opacity:1"
       d="M 26.657212,-146.92953 H 26.03717 l -0.06748,-0.25184 c 0,0 0.09866,-0.0198 0.103208,-0.0277 0.0046,-0.008 0.272988,0 0.272988,0 l 0.142076,0.14207 z"
       id="path4618"
       inkscape:connector-curvature="0" />
    <g
       id="g4633">
      <path
         transform="scale(0.26458333)"
         inkscape:connector-curvature="0"
         id="rect4554"
         d="m 98.408203,-555.32422 v 2 279.44336 l 175.828127,61.50195 v -282.25976 l -173.48828,-60.68555 z m 3.999997,4.81836 167.82813,58.70703 v 273.78321 L 102.4082,-276.7207 Z"
         style="color:#000000;font-style:normal;font-variant:normal;font-weight:normal;font-stretch:normal;font-size:medium;line-height:normal;font-family:sans-serif;font-variant-ligatures:normal;font-variant-position:normal;font-variant-caps:normal;font-variant-numeric:normal;font-variant-alternates:normal;font-feature-settings:normal;text-indent:0;text-align:start;text-decoration:none;text-decoration-line:none;text-decoration-style:solid;text-decoration-color:#000000;letter-spacing:normal;word-spacing:normal;text-transform:none;writing-mode:lr-tb;direction:ltr;text-orientation:mixed;dominant-baseline:auto;baseline-shift:baseline;text-anchor:start;white-space:normal;shape-padding:0;clip-rule:nonzero;display:inline;overflow:visible;visibility:visible;opacity:1;isolation:auto;mix-blend-mode:normal;color-interpolation:sRGB;color-interpolation-filters:linearRGB;solid-color:#000000;solid-opacity:1;vector-effect:none;fill:#000000;fill-opacity:1;fill-rule:nonzero;stroke:none;stroke-width:3.99999976;stroke-linecap:butt;stroke-linejoin:miter;stroke-miterlimit:4;stroke-dasharray:none;stroke-dashoffset:0;stroke-opacity:1;color-rendering:auto;image-rendering:auto;shape-rendering:auto;text-rendering:auto;enable-background:accumulate" />
      <path
         inkscape:connector-curvature="0"
         id="path4629"
         d="M 71.500028,-57.683299 27.095503,-73.369164 v -72.285506 l 44.404525,15.5329 z"
         style="fill:#ffffff;stroke:#000000;stroke-width:0.26458332px;stroke-linecap:butt;stroke-linejoin:miter;stroke-opacity:1" />
    </g>
    <path
       style="opacity:0.67000002;fill:none;stroke:#000000;stroke-width:2.94143605;stroke-linecap:round;stroke-linejoin:round;stroke-miterlimit:4;stroke-dasharray:none;stroke-opacity:1"
       d="m 60.616728,-105.686 v 8.03422"
       id="path4557"
       inkscape:connector-curvature="0" />
    <flowRoot
       xml:space="preserve"
       id="flowRoot4650"
       style="font-style:normal;font-variant:normal;font-weight:normal;font-stretch:normal;font-size:40px;line-height:1.25;font-family:'DejaVu Serif';-inkscape-font-specification:'DejaVu Serif';letter-spacing:0px;word-spacing:0px;fill:#000000;fill-opacity:1;stroke:none"
       transform="scale(0.26458333)"><flowRegion
         id="flowRegion4652"
         style="font-style:normal;font-variant:normal;font-weight:normal;font-stretch:normal;font-family:'DejaVu Serif';-inkscape-font-specification:'DejaVu Serif'"><rect
           id="rect4654"
           width="40"
           height="43"
           x="-902"
           y="-988.48029"
           style="font-style:normal;font-variant:normal;font-weight:normal;font-stretch:normal;font-family:'DejaVu Serif';-inkscape-font-specification:'DejaVu Serif'" /></flowRegion><flowPara
         id="flowPara4656" /></flowRoot>    <flowRoot
       xml:space="preserve"
       id="flowRoot4658"
       style="font-style:normal;font-variant:normal;font-weight:normal;font-stretch:normal;font-size:40px;line-height:1.25;font-family:'DejaVu Serif';-inkscape-font-specification:'DejaVu Serif';letter-spacing:0px;word-spacing:0px;fill:#000000;fill-opacity:1;stroke:none"
       transform="scale(0.26458333)"><flowRegion
         id="flowRegion4660"
         style="font-style:normal;font-variant:normal;font-weight:normal;font-stretch:normal;font-family:'DejaVu Serif';-inkscape-font-specification:'DejaVu Serif'"><rect
           id="rect4662"
           width="486"
           height="210"
           x="-734"
           y="-1048.4803"
           style="font-style:normal;font-variant:normal;font-weight:normal;font-stretch:normal;font-family:'DejaVu Serif';-inkscape-font-specification:'DejaVu Serif'" /></flowRegion><flowPara
         id="flowPara4664" /></flowRoot>    <flowRoot
       xml:space="preserve"
       id="flowRoot4698"
       style="font-style:normal;font-weight:normal;font-size:40px;line-height:1.25;font-family:sans-serif;letter-spacing:0px;word-spacing:0px;fill:#000000;fill-opacity:1;stroke:none"
       transform="scale(0.26458333)"><flowRegion
         id="flowRegion4700"><rect
           id="rect4702"
           width="155"
           height="46"
           x="-650"
           y="-935.98035" /></flowRegion><flowPara
         id="flowPara4704" /></flowRoot>    <flowRoot
       xml:space="preserve"
       id="flowRoot4706"
       style="font-style:normal;font-variant:normal;font-weight:normal;font-stretch:normal;font-size:40px;line-height:1.25;font-family:'URW Gothic L';-inkscape-font-specification:'URW Gothic L';letter-spacing:0px;word-spacing:0px;fill:#000000;fill-opacity:1;stroke:none"
       transform="scale(0.26458333)"><flowRegion
         id="flowRegion4708"
         style="font-style:normal;font-variant:normal;font-weight:normal;font-stretch:normal;font-family:'URW Gothic L';-inkscape-font-specification:'URW Gothic L'"><rect
           id="rect4710"
           width="262"
           height="88.5"
           x="-604"
           y="-967.48035"
           style="font-style:normal;font-variant:normal;font-weight:normal;font-stretch:normal;font-family:'URW Gothic L';-inkscape-font-specification:'URW Gothic L'" /></flowRegion><flowPara
         id="flowPara4712"
         style="font-style:normal;font-variant:normal;font-weight:normal;font-stretch:normal;font-family:'URW Gothic L';-inkscape-font-specification:'URW Gothic L'" /></flowRoot>    <g
       id="g99">
      <text
         id="text4730"
         y="-266.83649"
         x="-132.73119"
         style="font-style:normal;font-weight:normal;font-size:10.58333302px;line-height:1.25;font-family:sans-serif;letter-spacing:0px;word-spacing:0px;fill:#000000;fill-opacity:1;stroke:none;stroke-width:0.26458332"
         xml:space="preserve"><tspan
           style="stroke-width:0.26458332"
           y="-266.83649"
           x="-132.73119"
           id="tspan4728"
           sodipodi:role="line"> </tspan></text>
      <g
         id="flowRoot4714"
         style="font-style:normal;font-variant:normal;font-weight:normal;font-stretch:normal;font-size:40px;line-height:1.25;font-family:'Liberation Sans';-inkscape-font-specification:'Liberation Sans';letter-spacing:0px;word-spacing:0px;fill:#000000;fill-opacity:1;stroke:none"
         transform="matrix(0.26458333,0,0,0.26458333,2.3386083,-0.93544293)"
         aria-label="ELEKTRO
">
        <path
           id="path55"
           style="fill:#0000ff"
           d="m -694.71875,-990.45029 v -27.51951 h 20.87891 v 3.0469 h -17.14844 v 8.8281 h 15.97656 v 3.0078 h -15.97656 v 9.58983 h 17.94922 v 3.04688 z"
           inkscape:connector-curvature="0" />
        <path
           id="path57"
           style="fill:#0000ff"
           d="m -668,-990.45029 v -27.51951 h 3.73047 v 24.47263 h 13.90625 v 3.04688 z"
           inkscape:connector-curvature="0" />
        <path
           id="path59"
           style="fill:#0000ff"
           d="m -645.73437,-990.45029 v -27.51951 h 20.8789 v 3.0469 h -17.14844 v 8.8281 h 15.97657 v 3.0078 h -15.97657 v 9.58983 h 17.94922 v 3.04688 z"
           inkscape:connector-curvature="0" />
        <path
           id="path61"
           style="fill:#0000ff"
           d="m -600.69531,-990.45029 -10.9961,-13.28121 -3.59375,2.7343 v 10.54691 h -3.73046 v -27.51951 h 3.73046 v 13.789 l 13.26172,-13.789 h 4.39453 l -11.71875,11.9531 13.28125,15.56641 z"
           inkscape:connector-curvature="0" />
        <path
           id="path63"
           style="fill:#0000ff"
           d="m -581.51562,-1014.9229 v 24.47261 h -3.71094 v -24.47261 h -9.45313 v -3.0469 h 22.61719 v 3.0469 z"
           inkscape:connector-curvature="0" />
        <path
           id="path65"
           style="fill:#0000ff"
           d="m -548.39062,-990.45029 -7.14844,-11.42581 h -8.57422 v 11.42581 h -3.73047 v -27.51951 h 12.94922 q 4.64844,0 7.16797,2.0898 2.53906,2.0703 2.53906,5.7813 0,3.0664 -1.79687,5.1562 -1.77735,2.0899 -4.92188,2.6367 l 7.8125,11.85551 z m -0.54688,-19.60941 q 0,-2.4023 -1.64062,-3.6523 -1.6211,-1.2695 -4.6875,-1.2695 h -8.84766 v 10.1562 h 9.00391 q 2.94921,0 4.55078,-1.3672 1.62109,-1.3867 1.62109,-3.8672 z"
           inkscape:connector-curvature="0" />
        <path
           id="path67"
           style="fill:#0000ff"
           d="m -513.01953,-1004.337 q 0,4.3164 -1.66016,7.55858 -1.64062,3.24219 -4.72656,4.98047 -3.08594,1.73828 -7.28516,1.73828 -4.23828,0 -7.32421,-1.71875 -3.06641,-1.71875 -4.6875,-4.96093 -1.6211,-3.26175 -1.6211,-7.59765 0,-6.6016 3.61328,-10.3125 3.61328,-3.7305 10.0586,-3.7305 4.19922,0 7.28515,1.6797 3.08594,1.6602 4.70703,4.8438 1.64063,3.1836 1.64063,7.5195 z m -3.80859,0 q 0,-5.1367 -2.57813,-8.0664 -2.55859,-2.9297 -7.24609,-2.9297 -4.72657,0 -7.30469,2.8906 -2.57813,2.8906 -2.57813,8.1055 0,5.17577 2.59766,8.22265 2.61719,3.02734 7.24609,3.02734 4.76563,0 7.30469,-2.92969 2.5586,-2.94922 2.5586,-8.3203 z"
           inkscape:connector-curvature="0" />
      </g>
      <g
         id="g84">
        <g
           id="flowRoot4734"
           style="font-style:normal;font-weight:normal;font-size:40px;line-height:1.25;font-family:sans-serif;letter-spacing:0px;word-spacing:0px;fill:#000000;fill-opacity:1;stroke:none"
           transform="matrix(0.26458333,0,0,0.26458333,2.6336779,-6.833771)"
           aria-label="Kubát">
          <path
             id="path70"
             style="font-style:normal;font-variant:normal;font-weight:normal;font-stretch:normal;font-family:'URW Chancery L';-inkscape-font-specification:'URW Chancery L'"
             d="m -603.9,-946.53029 c -1.56,2.2 -2.44,2.88 -3.8,2.88 -1.4,0 -2.8,-1.16 -3.96,-3.28 -1.16,-2.16 -1.72,-3.52 -3.76,-9.24 l -2.24,-6.12 c 6.28,-5.32 7.88,-6.36 9.64,-6.36 0.72,0 1.24,0.12 2.36,0.6 l 1.48,-2.96 c -1,-0.4 -1.52,-0.52 -2.24,-0.52 -1.28,0 -2.12,0.4 -3.96,1.92 l -8.4,6.88 c -0.12,0.12 -0.6,0.48 -1.28,1 l 2.08,-8.36 c 1.16,-0.32 1.48,-0.52 2.08,-1.24 -1.8,-0.12 -2.64,-0.16 -3.64,-0.16 -3.16,0 -5.72,0.44 -7.48,1.28 -3,1.48 -4.64,3.84 -4.64,6.72 0,1.04 0.16,1.64 0.68,3 l 3.28,-1.4 c -0.64,-1.56 -0.88,-2.56 -0.88,-3.8 0,-2.8 2,-4.32 5.72,-4.32 0.44,0 1.08,0.04 1.92,0.12 -0.24,1.04 -0.68,2.68 -1.2,4.92 -1.24,5 -1.8,7.08 -2.44,8.92 -1.56,4.44 -3.04,5.88 -6.12,5.88 h -1.52 l -1.76,1.72 h 5.48 c 3.52,0 3.6,-0.04 6.32,-1.72 h -4.84 c 4.88,-4.88 5.52,-5.92 6.8,-10.92 0.08,0.28 0.2,0.56 0.28,0.88 0.24,0.68 0.24,0.72 0.72,2.2 l 0.72,2.4 c 1.72,5.6 2.92,8.36 4.36,10 1.76,2 4.2,3.04 7.16,3.04 1.32,0 2.04,-0.12 3.52,-0.68 z"
             inkscape:connector-curvature="0" />
          <path
             id="path72"
             style="font-style:normal;font-variant:normal;font-weight:normal;font-stretch:normal;font-family:'URW Chancery L';-inkscape-font-specification:'URW Chancery L'"
             d="m -607.81375,-960.45029 c 1.68,-0.84 2.44,-1.16 2.92,-1.16 0.32,0 0.56,0.32 0.56,0.76 0,0.52 -0.4,2.24 -1.12,4.96 -1,3.72 -1.24,4.84 -1.24,6 0,1.12 0.48,1.96 1.12,1.96 0.6,0 1.32,-0.36 3.32,-1.68 l 4.12,-2.68 c -0.32,1.28 -0.56,2.72 -0.56,3.44 0,0.52 0.32,0.92 0.72,0.92 0.8,0 4.6,-2.24 7.32,-4.28 l 0.28,-1.2 c -3.12,1.84 -4.16,2.4 -4.6,2.4 -0.28,0 -0.44,-0.32 -0.44,-0.96 0,-2.04 1.48,-8 3.2,-13.08 -0.52,0.28 -0.88,0.48 -1.04,0.56 -0.48,0.24 -0.96,0.48 -1.48,0.72 -0.12,0.04 -0.36,0.16 -0.8,0.4 -0.24,0.92 -1.04,4.12 -2.36,9.64 -3.08,2.12 -4.48,2.92 -4.96,2.92 -0.44,0 -0.76,-0.56 -0.76,-1.32 0,-0.92 0.32,-2.52 1,-5.08 0.44,-1.6 0.72,-2.72 0.84,-3.28 0.36,-1.48 0.64,-2.52 0.72,-2.8 0.12,-0.44 0.2,-0.8 0.2,-1.08 0,-0.32 -0.2,-0.52 -0.48,-0.52 -0.4,0 -3.32,1.56 -6.2,3.36 z"
             inkscape:connector-curvature="0" />
          <path
             id="path74"
             style="font-style:normal;font-variant:normal;font-weight:normal;font-stretch:normal;font-family:'URW Chancery L';-inkscape-font-specification:'URW Chancery L'"
             d="m -588.77625,-947.77029 1.28,-1.08 c 1.12,0.4 1.96,0.6 2.72,0.6 0.8,0 1.52,-0.24 2.56,-0.88 0.84,-0.56 1.76,-1.08 2.72,-1.64 1.4,-0.76 2.28,-1.64 2.96,-2.92 1.28,-2.28 2.24,-5.8 2.24,-8.16 0,-1.84 -0.92,-3.04 -2.36,-3.04 -1.32,0 -2.44,0.6 -6.44,3.44 0.24,-0.92 0.36,-1.56 0.44,-1.84 0.88,-4.32 0.88,-4.32 1,-4.68 0.32,-1.28 0.92,-2.84 1.36,-3.6 0.68,-1.16 1.4,-1.52 2.92,-1.52 h 1.12 0.6 l 1.64,-2.32 c -0.56,-0.08 -1.4,-0.12 -1.8,-0.12 -1.44,0 -2.16,0.44 -5.52,3.2 -2.72,2.2 -2.72,2.2 -4.12,8.44 l -2.28,9.88 c -0.72,3.12 -0.8,3.52 -1.44,6.08 z m 5.28,-12.04 c 2.28,-1.68 3.68,-2.4 4.6,-2.4 0.8,0 1.32,0.76 1.32,1.96 0,1.6 -0.48,4 -1.16,5.72 -1.08,2.68 -2.48,4 -4.24,4 -0.8,0 -1.6,-0.24 -2.64,-0.76 z"
             inkscape:connector-curvature="0" />
          <path
             id="path76"
             style="font-style:normal;font-variant:normal;font-weight:normal;font-stretch:normal;font-family:'URW Chancery L';-inkscape-font-specification:'URW Chancery L'"
             d="m -556.17938,-953.65029 c -3,2 -3.59999,2.36 -4,2.36 -0.28,0 -0.47999,-0.32 -0.47999,-0.8 0,-1.04 0.95999,-5.44 2.4,-10.76 0.43999,-0.6 0.52,-0.72 1.16,-1.44 -1.92,-0.44 -3.32,-0.6 -5.04,-0.6 -1.64,0 -2.4,0.16 -3.44001,0.8 -1.43999,0.84 -3.12,2.08 -3.64,2.64 -1.48,1.68 -3.15999,7.08 -3.15999,10.32 0,1.92 0.64,3.2 1.64,3.2 0.88,0 2.2,-0.8 7.2,-4.4 -0.40001,1.84 -0.6,3.08 -0.6,3.56 0,0.52 0.24,0.84 0.64,0.84 0.48,0 0.48,0 3.67999,-2.04 1.16001,-0.76 2.08001,-1.4 3.6,-2.52 z m -7.79999,0.24 c -2.36001,1.72 -3.56,2.4 -4.28,2.4 -0.64,0 -1.04001,-0.72 -1.04001,-2 0,-2 0.64001,-4.72 1.64001,-7 0.95999,-2.2 1.83999,-3.04 3.19999,-3.04 0.72001,0 1.96001,0.2 3.4,0.52 -0.79999,3.04 -1.07999,3.96 -1.12,4.16 -0.23999,1 -0.43999,2 -0.67999,3.04 -0.04,0.2 -0.16,0.68 -0.36001,1.4 z m 1,-13.44 c 2.48,-2.92 3.27999,-3.8 6.36,-6.92 l -1.8,-0.88 -5.52001,7.56 z"
             inkscape:connector-curvature="0" />
          <path
             id="path78"
             style="font-style:normal;font-variant:normal;font-weight:normal;font-stretch:normal;font-family:'URW Chancery L';-inkscape-font-specification:'URW Chancery L'"
             d="m -544.5425,-953.49029 c -3.04,1.8 -4.32,2.48 -4.88,2.48 -0.52,0 -1.16,-1.04 -1.16,-1.88 0,-0.56 0.68,-3.64 1.72,-7.84 0.56,-0.04 0.96,-0.04 1.16,-0.04 l 1.6,-0.04 c 0.16,0 0.56,-0.04 1.2,-0.12 l 1.52,-1.16 h -5.12 l 1.6,-6.48 c -0.76,0.4 -1.08,0.52 -1.68,0.8 -0.28,0.16 -0.6,0.28 -0.92,0.44 -0.16,0.08 -0.36,0.16 -0.56,0.24 l -1.12,5 c -0.36,0.04 -0.6,0.04 -0.72,0.04 h -0.96 c -0.08,0 -0.28,0 -0.6,0.04 -0.44,0.28 -0.48,0.28 -1.16,0.84 -0.12,0.08 -0.32,0.24 -0.6,0.44 h 0.96 1.84 0.88 c -2.12,8.88 -2.12,8.88 -2.12,10.12 0,1.28 0.84,2.68 1.6,2.68 0.88,0 3.6,-1.68 7.44,-4.56 z"
             inkscape:connector-curvature="0" />
        </g>
        <path
           style="color:#000000;font-style:normal;font-variant:normal;font-weight:normal;font-stretch:normal;font-size:medium;line-height:normal;font-family:sans-serif;font-variant-ligatures:normal;font-variant-position:normal;font-variant-caps:normal;font-variant-numeric:normal;font-variant-alternates:normal;font-feature-settings:normal;text-indent:0;text-align:start;text-decoration:none;text-decoration-line:none;text-decoration-style:solid;text-decoration-color:#000000;letter-spacing:normal;word-spacing:normal;text-transform:none;writing-mode:lr-tb;direction:ltr;text-orientation:mixed;dominant-baseline:auto;baseline-shift:baseline;text-anchor:start;white-space:normal;shape-padding:0;clip-rule:nonzero;display:inline;overflow:visible;visibility:visible;opacity:1;isolation:auto;mix-blend-mode:normal;color-interpolation:sRGB;color-interpolation-filters:linearRGB;solid-color:#000000;solid-opacity:1;vector-effect:none;fill:#000000;fill-opacity:1;fill-rule:nonzero;stroke:none;stroke-width:0.26458332px;stroke-linecap:butt;stroke-linejoin:miter;stroke-miterlimit:4;stroke-dasharray:none;stroke-dashoffset:0;stroke-opacity:1;color-rendering:auto;image-rendering:auto;shape-rendering:auto;text-rendering:auto;enable-background:accumulate"
           d="m -157.30695,-257.32257 -1.20703,0.0332 -1.89844,0.4004 -3.24219,0.79296 0.4263,0.25782 2.87449,-0.79297 1.87109,-0.39453 1.17578,-0.0332 2.79687,0.0996 1.52344,0.29883 h 2.43522 l 0.28939,-0.26562 h -2.69922 l -1.51953,-0.29688 z"
           id="path4752"
           inkscape:connector-curvature="0"
           sodipodi:nodetypes="ccccccccccccccc" />
      </g>
    </g>
  </g>
</svg>
