<?xml version="1.0" encoding="UTF-8" standalone="no"?>
<svg
   xmlns:dc="http://purl.org/dc/elements/1.1/"
   xmlns:cc="http://creativecommons.org/ns#"
   xmlns:rdf="http://www.w3.org/1999/02/22-rdf-syntax-ns#"
   xmlns:svg="http://www.w3.org/2000/svg"
   xmlns="http://www.w3.org/2000/svg"
   id="svg5531"
   version="1.1"
   viewBox="0 0 210 297"
   height="297mm"
   width="210mm">
  <defs
     id="defs5525" />
  <metadata
     id="metadata5528">
    <rdf:RDF>
      <cc:Work
         rdf:about="">
        <dc:format>image/svg+xml</dc:format>
        <dc:type
           rdf:resource="http://purl.org/dc/dcmitype/StillImage" />
        <dc:title></dc:title>
      </cc:Work>
    </rdf:RDF>
  </metadata>
  <g
     id="layer1">
    <g
       transform="matrix(1.0182124,0,0,1.0182124,414.30882,100.01406)"
       id="g5185">
      <g
         id="g5116"
         transform="translate(5.5706968,-3.1995859)">
        <path
           id="path4679-1"
           d="m -364.68001,-83.749097 v 7.261387 h 43.83238"
           style="fill:none;stroke:#000000;stroke-width:1.32025254;stroke-linecap:round;stroke-linejoin:miter;stroke-miterlimit:4;stroke-dasharray:none;stroke-opacity:1" />
        <path
           d="m -318.13389,-76.487709 a 1.7163284,1.7163284 0 0 1 -1.60408,1.712654 1.7163284,1.7163284 0 0 1 -1.81389,-1.488628 1.7163284,1.7163284 0 0 1 1.3668,-1.907376 1.7163284,1.7163284 0 0 1 1.99269,1.239131"
           id="circle4681-2"
           style="stroke-width:1.32025254;stroke-miterlimit:4;stroke-dasharray:none" />
      </g>
      <g
         transform="translate(-166.87016,168.06059)"
         id="g99">
        <text
           id="text4730"
           y="-266.83649"
           x="-132.73119"
           style="font-style:normal;font-weight:normal;font-size:10.58333302px;line-height:1.25;font-family:sans-serif;letter-spacing:0px;word-spacing:0px;fill:#000000;fill-opacity:1;stroke:none;stroke-width:0.26458332"
           xml:space="preserve"><tspan
             style="stroke-width:0.26458332"
             y="-266.83649"
             x="-132.73119"
             id="tspan4728"> </tspan></text>
        <g
           id="flowRoot4714"
           style="font-style:normal;font-variant:normal;font-weight:normal;font-stretch:normal;font-size:40px;line-height:1.25;font-family:'Liberation Sans';-inkscape-font-specification:'Liberation Sans';letter-spacing:0px;word-spacing:0px;fill:#000000;fill-opacity:1;stroke:none"
           transform="matrix(0.26458333,0,0,0.26458333,2.3386083,-0.93544293)"
           aria-label="ELEKTRO ">
          <path
             id="path55"
             style="fill:#0000ff"
             d="m -694.71875,-990.45029 v -27.51951 h 20.87891 v 3.0469 h -17.14844 v 8.8281 h 15.97656 v 3.0078 h -15.97656 v 9.58983 h 17.94922 v 3.04688 z" />
          <path
             id="path57"
             style="fill:#0000ff"
             d="m -668,-990.45029 v -27.51951 h 3.73047 v 24.47263 h 13.90625 v 3.04688 z" />
          <path
             id="path59"
             style="fill:#0000ff"
             d="m -645.73437,-990.45029 v -27.51951 h 20.8789 v 3.0469 h -17.14844 v 8.8281 h 15.97657 v 3.0078 h -15.97657 v 9.58983 h 17.94922 v 3.04688 z" />
          <path
             id="path61"
             style="fill:#0000ff"
             d="m -600.69531,-990.45029 -10.9961,-13.28121 -3.59375,2.7343 v 10.54691 h -3.73046 v -27.51951 h 3.73046 v 13.789 l 13.26172,-13.789 h 4.39453 l -11.71875,11.9531 13.28125,15.56641 z" />
          <path
             id="path63"
             style="fill:#0000ff"
             d="m -581.51562,-1014.9229 v 24.47261 h -3.71094 v -24.47261 h -9.45313 v -3.0469 h 22.61719 v 3.0469 z" />
          <path
             id="path65"
             style="fill:#0000ff"
             d="m -548.39062,-990.45029 -7.14844,-11.42581 h -8.57422 v 11.42581 h -3.73047 v -27.51951 h 12.94922 q 4.64844,0 7.16797,2.0898 2.53906,2.0703 2.53906,5.7813 0,3.0664 -1.79687,5.1562 -1.77735,2.0899 -4.92188,2.6367 l 7.8125,11.85551 z m -0.54688,-19.60941 q 0,-2.4023 -1.64062,-3.6523 -1.6211,-1.2695 -4.6875,-1.2695 h -8.84766 v 10.1562 h 9.00391 q 2.94921,0 4.55078,-1.3672 1.62109,-1.3867 1.62109,-3.8672 z" />
          <path
             id="path67"
             style="fill:#0000ff"
             d="m -513.01953,-1004.337 q 0,4.3164 -1.66016,7.55858 -1.64062,3.24219 -4.72656,4.98047 -3.08594,1.73828 -7.28516,1.73828 -4.23828,0 -7.32421,-1.71875 -3.06641,-1.71875 -4.6875,-4.96093 -1.6211,-3.26175 -1.6211,-7.59765 0,-6.6016 3.61328,-10.3125 3.61328,-3.7305 10.0586,-3.7305 4.19922,0 7.28515,1.6797 3.08594,1.6602 4.70703,4.8438 1.64063,3.1836 1.64063,7.5195 z m -3.80859,0 q 0,-5.1367 -2.57813,-8.0664 -2.55859,-2.9297 -7.24609,-2.9297 -4.72657,0 -7.30469,2.8906 -2.57813,2.8906 -2.57813,8.1055 0,5.17577 2.59766,8.22265 2.61719,3.02734 7.24609,3.02734 4.76563,0 7.30469,-2.92969 2.5586,-2.94922 2.5586,-8.3203 z" />
        </g>
        <g
           id="g84">
          <g
             id="flowRoot4734"
             style="font-style:normal;font-weight:normal;font-size:40px;line-height:1.25;font-family:sans-serif;letter-spacing:0px;word-spacing:0px;fill:#000000;fill-opacity:1;stroke:none"
             transform="matrix(0.26458333,0,0,0.26458333,2.6336779,-6.833771)"
             aria-label="Kubát">
            <path
               id="path70"
               style="font-style:normal;font-variant:normal;font-weight:normal;font-stretch:normal;font-family:'URW Chancery L';-inkscape-font-specification:'URW Chancery L'"
               d="m -603.9,-946.53029 c -1.56,2.2 -2.44,2.88 -3.8,2.88 -1.4,0 -2.8,-1.16 -3.96,-3.28 -1.16,-2.16 -1.72,-3.52 -3.76,-9.24 l -2.24,-6.12 c 6.28,-5.32 7.88,-6.36 9.64,-6.36 0.72,0 1.24,0.12 2.36,0.6 l 1.48,-2.96 c -1,-0.4 -1.52,-0.52 -2.24,-0.52 -1.28,0 -2.12,0.4 -3.96,1.92 l -8.4,6.88 c -0.12,0.12 -0.6,0.48 -1.28,1 l 2.08,-8.36 c 1.16,-0.32 1.48,-0.52 2.08,-1.24 -1.8,-0.12 -2.64,-0.16 -3.64,-0.16 -3.16,0 -5.72,0.44 -7.48,1.28 -3,1.48 -4.64,3.84 -4.64,6.72 0,1.04 0.16,1.64 0.68,3 l 3.28,-1.4 c -0.64,-1.56 -0.88,-2.56 -0.88,-3.8 0,-2.8 2,-4.32 5.72,-4.32 0.44,0 1.08,0.04 1.92,0.12 -0.24,1.04 -0.68,2.68 -1.2,4.92 -1.24,5 -1.8,7.08 -2.44,8.92 -1.56,4.44 -3.04,5.88 -6.12,5.88 h -1.52 l -1.76,1.72 h 5.48 c 3.52,0 3.6,-0.04 6.32,-1.72 h -4.84 c 4.88,-4.88 5.52,-5.92 6.8,-10.92 0.08,0.28 0.2,0.56 0.28,0.88 0.24,0.68 0.24,0.72 0.72,2.2 l 0.72,2.4 c 1.72,5.6 2.92,8.36 4.36,10 1.76,2 4.2,3.04 7.16,3.04 1.32,0 2.04,-0.12 3.52,-0.68 z" />
            <path
               id="path72"
               style="font-style:normal;font-variant:normal;font-weight:normal;font-stretch:normal;font-family:'URW Chancery L';-inkscape-font-specification:'URW Chancery L'"
               d="m -607.81375,-960.45029 c 1.68,-0.84 2.44,-1.16 2.92,-1.16 0.32,0 0.56,0.32 0.56,0.76 0,0.52 -0.4,2.24 -1.12,4.96 -1,3.72 -1.24,4.84 -1.24,6 0,1.12 0.48,1.96 1.12,1.96 0.6,0 1.32,-0.36 3.32,-1.68 l 4.12,-2.68 c -0.32,1.28 -0.56,2.72 -0.56,3.44 0,0.52 0.32,0.92 0.72,0.92 0.8,0 4.6,-2.24 7.32,-4.28 l 0.28,-1.2 c -3.12,1.84 -4.16,2.4 -4.6,2.4 -0.28,0 -0.44,-0.32 -0.44,-0.96 0,-2.04 1.48,-8 3.2,-13.08 -0.52,0.28 -0.88,0.48 -1.04,0.56 -0.48,0.24 -0.96,0.48 -1.48,0.72 -0.12,0.04 -0.36,0.16 -0.8,0.4 -0.24,0.92 -1.04,4.12 -2.36,9.64 -3.08,2.12 -4.48,2.92 -4.96,2.92 -0.44,0 -0.76,-0.56 -0.76,-1.32 0,-0.92 0.32,-2.52 1,-5.08 0.44,-1.6 0.72,-2.72 0.84,-3.28 0.36,-1.48 0.64,-2.52 0.72,-2.8 0.12,-0.44 0.2,-0.8 0.2,-1.08 0,-0.32 -0.2,-0.52 -0.48,-0.52 -0.4,0 -3.32,1.56 -6.2,3.36 z" />
            <path
               id="path74"
               style="font-style:normal;font-variant:normal;font-weight:normal;font-stretch:normal;font-family:'URW Chancery L';-inkscape-font-specification:'URW Chancery L'"
               d="m -588.77625,-947.77029 1.28,-1.08 c 1.12,0.4 1.96,0.6 2.72,0.6 0.8,0 1.52,-0.24 2.56,-0.88 0.84,-0.56 1.76,-1.08 2.72,-1.64 1.4,-0.76 2.28,-1.64 2.96,-2.92 1.28,-2.28 2.24,-5.8 2.24,-8.16 0,-1.84 -0.92,-3.04 -2.36,-3.04 -1.32,0 -2.44,0.6 -6.44,3.44 0.24,-0.92 0.36,-1.56 0.44,-1.84 0.88,-4.32 0.88,-4.32 1,-4.68 0.32,-1.28 0.92,-2.84 1.36,-3.6 0.68,-1.16 1.4,-1.52 2.92,-1.52 h 1.12 0.6 l 1.64,-2.32 c -0.56,-0.08 -1.4,-0.12 -1.8,-0.12 -1.44,0 -2.16,0.44 -5.52,3.2 -2.72,2.2 -2.72,2.2 -4.12,8.44 l -2.28,9.88 c -0.72,3.12 -0.8,3.52 -1.44,6.08 z m 5.28,-12.04 c 2.28,-1.68 3.68,-2.4 4.6,-2.4 0.8,0 1.32,0.76 1.32,1.96 0,1.6 -0.48,4 -1.16,5.72 -1.08,2.68 -2.48,4 -4.24,4 -0.8,0 -1.6,-0.24 -2.64,-0.76 z" />
            <path
               id="path76"
               style="font-style:normal;font-variant:normal;font-weight:normal;font-stretch:normal;font-family:'URW Chancery L';-inkscape-font-specification:'URW Chancery L'"
               d="m -556.17938,-953.65029 c -3,2 -3.59999,2.36 -4,2.36 -0.28,0 -0.47999,-0.32 -0.47999,-0.8 0,-1.04 0.95999,-5.44 2.4,-10.76 0.43999,-0.6 0.52,-0.72 1.16,-1.44 -1.92,-0.44 -3.32,-0.6 -5.04,-0.6 -1.64,0 -2.4,0.16 -3.44001,0.8 -1.43999,0.84 -3.12,2.08 -3.64,2.64 -1.48,1.68 -3.15999,7.08 -3.15999,10.32 0,1.92 0.64,3.2 1.64,3.2 0.88,0 2.2,-0.8 7.2,-4.4 -0.40001,1.84 -0.6,3.08 -0.6,3.56 0,0.52 0.24,0.84 0.64,0.84 0.48,0 0.48,0 3.67999,-2.04 1.16001,-0.76 2.08001,-1.4 3.6,-2.52 z m -7.79999,0.24 c -2.36001,1.72 -3.56,2.4 -4.28,2.4 -0.64,0 -1.04001,-0.72 -1.04001,-2 0,-2 0.64001,-4.72 1.64001,-7 0.95999,-2.2 1.83999,-3.04 3.19999,-3.04 0.72001,0 1.96001,0.2 3.4,0.52 -0.79999,3.04 -1.07999,3.96 -1.12,4.16 -0.23999,1 -0.43999,2 -0.67999,3.04 -0.04,0.2 -0.16,0.68 -0.36001,1.4 z m 1,-13.44 c 2.48,-2.92 3.27999,-3.8 6.36,-6.92 l -1.8,-0.88 -5.52001,7.56 z" />
            <path
               id="path78"
               style="font-style:normal;font-variant:normal;font-weight:normal;font-stretch:normal;font-family:'URW Chancery L';-inkscape-font-specification:'URW Chancery L'"
               d="m -544.5425,-953.49029 c -3.04,1.8 -4.32,2.48 -4.88,2.48 -0.52,0 -1.16,-1.04 -1.16,-1.88 0,-0.56 0.68,-3.64 1.72,-7.84 0.56,-0.04 0.96,-0.04 1.16,-0.04 l 1.6,-0.04 c 0.16,0 0.56,-0.04 1.2,-0.12 l 1.52,-1.16 h -5.12 l 1.6,-6.48 c -0.76,0.4 -1.08,0.52 -1.68,0.8 -0.28,0.16 -0.6,0.28 -0.92,0.44 -0.16,0.08 -0.36,0.16 -0.56,0.24 l -1.12,5 c -0.36,0.04 -0.6,0.04 -0.72,0.04 h -0.96 c -0.08,0 -0.28,0 -0.6,0.04 -0.44,0.28 -0.48,0.28 -1.16,0.84 -0.12,0.08 -0.32,0.24 -0.6,0.44 h 0.96 1.84 0.88 c -2.12,8.88 -2.12,8.88 -2.12,10.12 0,1.28 0.84,2.68 1.6,2.68 0.88,0 3.6,-1.68 7.44,-4.56 z" />
          </g>
          <path
             style="color:#000000;font-style:normal;font-variant:normal;font-weight:normal;font-stretch:normal;font-size:medium;line-height:normal;font-family:sans-serif;font-variant-ligatures:normal;font-variant-position:normal;font-variant-caps:normal;font-variant-numeric:normal;font-variant-alternates:normal;font-feature-settings:normal;text-indent:0;text-align:start;text-decoration:none;text-decoration-line:none;text-decoration-style:solid;text-decoration-color:#000000;letter-spacing:normal;word-spacing:normal;text-transform:none;writing-mode:lr-tb;direction:ltr;text-orientation:mixed;dominant-baseline:auto;baseline-shift:baseline;text-anchor:start;white-space:normal;shape-padding:0;clip-rule:nonzero;display:inline;overflow:visible;visibility:visible;opacity:1;isolation:auto;mix-blend-mode:normal;color-interpolation:sRGB;color-interpolation-filters:linearRGB;solid-color:#000000;solid-opacity:1;vector-effect:none;fill:#000000;fill-opacity:1;fill-rule:nonzero;stroke:none;stroke-width:0.26458332px;stroke-linecap:butt;stroke-linejoin:miter;stroke-miterlimit:4;stroke-dasharray:none;stroke-dashoffset:0;stroke-opacity:1;color-rendering:auto;image-rendering:auto;shape-rendering:auto;text-rendering:auto;enable-background:accumulate"
             d="m -157.30695,-257.32257 -1.20703,0.0332 -1.89844,0.4004 -3.24219,0.79296 0.4263,0.25782 2.87449,-0.79297 1.87109,-0.39453 1.17578,-0.0332 2.79687,0.0996 1.52344,0.29883 h 2.43522 l 0.28939,-0.26562 h -2.69922 l -1.51953,-0.29688 z"
             id="path4752" />
        </g>
      </g>
      <g
         id="g5129"
         transform="translate(5.5995317,-6.0588024)">
        <path
           style="fill:none;stroke:#0000ff;stroke-width:1.22467184;stroke-linecap:round;stroke-linejoin:miter;stroke-miterlimit:4;stroke-dasharray:none;stroke-opacity:1"
           d="m -356.74815,-91.637446 v 11.618222 h 47.82605"
           id="path4675-2" />
        <path
           style="fill:#0000ff;fill-opacity:1;stroke-width:1.32025254;stroke-miterlimit:4;stroke-dasharray:none"
           id="path5108"
           d="m -306.33381,-80.019226 a 1.7163284,1.7163284 0 0 1 -1.60408,1.712654 1.7163284,1.7163284 0 0 1 -1.8139,-1.488628 1.7163284,1.7163284 0 0 1 1.36681,-1.907376 1.7163284,1.7163284 0 0 1 1.99269,1.239131" />
      </g>
      <g
         id="g5152"
         transform="matrix(0.84062371,0,0,1.0062677,-56.668086,0.55640726)">
        <path
           id="path5022"
           d="m -355.13469,-94.64387 c 0,3.916747 0,7.833493 0,11.75024 18.52755,0 37.05509,0 55.58264,0"
           style="fill:none;stroke:#ffff00;stroke-width:1.32025254;stroke-linecap:round;stroke-linejoin:miter;stroke-miterlimit:4;stroke-dasharray:none;stroke-opacity:1;paint-order:stroke markers fill" />
        <path
           id="path3866-5"
           d="m -355.45877,-94.762366 v 6.094608 6.094608 h 55.90468"
           style="fill:none;stroke:#ccff00;stroke-width:0.67571253;stroke-linecap:round;stroke-linejoin:miter;stroke-miterlimit:4;stroke-dasharray:none;stroke-opacity:1;paint-order:stroke markers fill" />
      </g>
      <g
         id="g5033"
         transform="translate(-24.962691,8.6265274)">
        <path
           id="path4673-6"
           d="m -284.76712,-91.501906 a 1.7163284,1.7163284 0 0 1 1.71619,-1.716172 1.7163284,1.7163284 0 0 1 1.7167,1.716172 z"
           style="fill:#ffff00;fill-opacity:1;stroke-width:1.32025242;stroke-miterlimit:4;stroke-dasharray:none" />
        <path
           style="fill:#ccff00;fill-opacity:1;stroke-width:1.32025242;stroke-miterlimit:4;stroke-dasharray:none"
           d="m -284.76712,-91.501906 a 1.7163284,1.7163284 0 0 0 1.71619,1.716172 1.7163284,1.7163284 0 0 0 1.7167,-1.716172 z"
           id="path5029" />
      </g>
    </g>
  </g>
</svg>
